<svg width="400" height="400" viewBox="0 0 400 400" fill="none" xmlns="http://www.w3.org/2000/svg">
<g clip-path="url(#clip0_144_91)">
<rect width="400" height="400" rx="200" fill="#6200F6"/>
<g opacity="0.6">
<path fill-rule="evenodd" clip-rule="evenodd" d="M200 200L146.765 0H85.2979L200 200Z" fill="#635EF2"/>
<path fill-rule="evenodd" clip-rule="evenodd" d="M200 0V200L253.235 0H200Z" fill="#635EF2"/>
<path fill-rule="evenodd" clip-rule="evenodd" d="M314.702 0L200 200L398.667 0H314.702Z" fill="#635EF2"/>
<path fill-rule="evenodd" clip-rule="evenodd" d="M498 26.8L200 200L498 119.616V26.8Z" fill="#635EF2"/>
<path fill-rule="evenodd" clip-rule="evenodd" d="M498 200H200L498 280.384V200Z" fill="#635EF2"/>
<path fill-rule="evenodd" clip-rule="evenodd" d="M498 373.208L200 200L398.667 400H498V373.208Z" fill="#635EF2"/>
<path fill-rule="evenodd" clip-rule="evenodd" d="M314.702 400L200 200L253.235 400H314.702Z" fill="#635EF2"/>
<path fill-rule="evenodd" clip-rule="evenodd" d="M199.999 400V200L146.765 400H199.999Z" fill="#635EF2"/>
<path fill-rule="evenodd" clip-rule="evenodd" d="M85.2985 400L200.001 200L1.33398 400H85.2985Z" fill="#635EF2"/>
<path fill-rule="evenodd" clip-rule="evenodd" d="M-98 373.208L200 200L-98 280.384V373.208Z" fill="#635EF2"/>
<path fill-rule="evenodd" clip-rule="evenodd" d="M-98 200H200L-98 119.616V200Z" fill="#635EF2"/>
<path fill-rule="evenodd" clip-rule="evenodd" d="M-98 26.8L200 200L1.33333 0H-98V26.8Z" fill="#635EF2"/>
<path fill-rule="evenodd" clip-rule="evenodd" d="M239.042 400L222.084 331.176L225.302 400H239.042Z" fill="#635EF2"/>
</g>
<g filter="url(#filter0_i_144_91)">
<path d="M278.024 285.407C288.61 303.744 293.712 338.327 279.959 346.267C266.206 354.207 238.807 332.498 228.22 314.161C217.633 295.824 227.868 287.803 241.62 279.863C255.373 271.922 267.437 267.07 278.024 285.407Z" fill="#FDC02A"/>
</g>
<path d="M274.906 287.207C279.899 295.856 283.684 308.551 284.528 320C284.95 325.714 284.622 330.908 283.479 335.023C282.33 339.156 280.482 341.808 278.159 343.149C275.836 344.49 272.615 344.765 268.462 343.693C264.326 342.625 259.664 340.313 254.927 337.091C245.433 330.635 236.332 321.01 231.338 312.361C226.431 303.861 226.808 298.678 228.936 294.868C231.341 290.562 236.453 287.003 243.42 282.98C250.387 278.958 256.026 276.31 260.958 276.38C265.321 276.443 269.999 278.708 274.906 287.207Z" stroke="black" stroke-width="7.2"/>
<path d="M207.838 290.107L202.072 287.19L207.586 283.822L260.84 251.299L266.355 247.93L266.316 254.392L266.233 268.283L266.233 268.283C266.224 269.812 265.908 271.323 265.304 272.728C264.701 274.133 263.821 275.402 262.718 276.46C262.718 276.46 262.718 276.46 262.718 276.46L252.633 286.142L252.633 286.143C249.696 288.961 246.181 291.108 242.333 292.433L242.332 292.433L229.114 296.985C227.668 297.482 226.137 297.685 224.612 297.581C223.087 297.477 221.598 297.067 220.234 296.378L220.233 296.377L207.838 290.107Z" fill="#3A407D" stroke="black" stroke-width="7.2"/>
<path d="M232.481 188.158L233.56 192.164L248.889 249.064L249.466 251.204L251.636 251.653L252.366 248.128C251.636 251.653 251.636 251.653 251.636 251.653L251.637 251.654L251.642 251.655L251.662 251.659L251.74 251.675L252.045 251.738L253.22 251.981L257.54 252.875C261.188 253.631 266.228 254.674 271.795 255.826C282.929 258.129 296.173 260.869 304.609 262.61L232.481 188.158ZM232.481 188.158L236.599 187.654L268.098 183.803M232.481 188.158L268.098 183.803M268.098 183.803C268.098 183.803 268.098 183.803 268.098 183.802C269.838 183.589 271.603 183.862 273.198 184.589C274.793 185.317 276.156 186.472 277.135 187.926L277.141 187.934M268.098 183.803L277.141 187.934M277.141 187.934C283.532 197.478 303.718 228.239 313.908 251.364L313.936 251.429M277.141 187.934L313.936 251.429M313.936 251.429L313.963 251.495M313.936 251.429L313.963 251.495M313.963 251.495C314.508 252.88 314.67 254.386 314.43 255.855M313.963 251.495L314.43 255.855M314.43 255.855C314.189 257.324 313.557 258.701 312.598 259.84M314.43 255.855L312.598 259.84M312.598 259.84C311.64 260.979 310.392 261.837 308.985 262.325M312.598 259.84L308.985 262.325M308.985 262.325C307.579 262.813 306.068 262.911 304.61 262.61L308.985 262.325Z" fill="#F60800" stroke="black" stroke-width="7.2"/>
<path d="M240.392 203.695L252.364 248.129C252.364 248.129 284.887 254.862 302.621 258.526C291.986 237.023 275.484 211.88 269.773 203.351C269.164 202.448 268.318 201.73 267.327 201.279C266.336 200.827 265.239 200.658 264.158 200.79L240.392 203.695Z" fill="#B92500"/>
<path d="M164.645 229.582L162.317 233.017L144.507 259.281C144.507 259.282 144.507 259.282 144.506 259.282C143.522 260.732 142.959 262.427 142.878 264.177C142.796 265.928 143.201 267.668 144.047 269.203L144.052 269.213C149.624 279.257 167.773 311.262 183.694 330.887L183.738 330.942L183.785 330.995C184.767 332.113 186.034 332.945 187.451 333.403C188.867 333.86 190.381 333.926 191.833 333.594C193.284 333.261 194.618 332.542 195.694 331.513C196.77 330.485 197.547 329.185 197.945 327.751L164.645 229.582ZM164.645 229.582L167.717 232.372L211.338 271.993L212.978 273.483L212.387 275.619L208.917 274.658M164.645 229.582L208.917 274.658M208.917 274.658C212.387 275.619 212.387 275.619 212.386 275.619L212.386 275.62L212.385 275.625L212.379 275.645L212.358 275.721L212.275 276.022L211.955 277.178L210.778 281.43C209.784 285.02 208.41 289.98 206.893 295.459C203.858 306.416 200.248 319.448 197.945 327.749L208.917 274.658Z" fill="#F60800" stroke="black" stroke-width="7.2"/>
<path d="M174.853 243.718L208.917 274.659C208.917 274.659 200.056 306.669 195.216 324.118C180.944 304.838 166.11 278.675 161.131 269.699C160.605 268.745 160.353 267.664 160.404 266.577C160.454 265.489 160.804 264.436 161.416 263.535L174.853 243.718Z" fill="#B92500"/>
<path d="M128.705 74.8979L128.722 74.9026L128.74 74.9074C147.81 80.1465 188.482 95.0548 221.052 132.667C233.575 147.128 245.575 172.334 254.895 195.217C264.272 218.24 271.14 239.439 273.287 246.248L273.289 246.256L273.292 246.264C273.729 247.673 273.684 249.188 273.163 250.568C272.642 251.949 271.675 253.116 270.416 253.885C270.416 253.885 270.416 253.885 270.416 253.885L270.082 254.089C259.399 260.614 215.471 287.443 205.509 293.524C204.25 294.294 202.771 294.621 201.305 294.454C199.839 294.287 198.471 293.636 197.417 292.603L197.411 292.598L197.406 292.593C192.327 287.574 176.604 271.783 160.403 252.928C144.301 234.187 127.356 212.001 120.21 194.257C101.621 148.106 106.93 105.114 110.978 85.7553L110.982 85.7376L110.986 85.7199C111.402 83.8255 112.196 82.0348 113.322 80.4556C114.448 78.8763 115.882 77.541 117.537 76.5301C119.192 75.5192 121.035 74.8534 122.954 74.5729C124.873 74.2924 126.829 74.403 128.705 74.8979Z" fill="#B92500" stroke="black" stroke-width="7.2"/>
<path d="M214.128 130.341C183.951 97.9451 148.002 84.1602 129.512 78.8612C126.975 102.47 124.467 150.912 141.313 182.28L214.128 130.341Z" fill="#F60800"/>
<path d="M118.326 178.02C119.841 183.06 121.585 188.03 123.551 192.912C137.353 227.179 189.846 280.059 199.939 290.032C200.42 290.504 201.045 290.801 201.714 290.877C202.384 290.953 203.059 290.804 203.634 290.453C213.701 284.307 258.476 256.961 268.542 250.813C269.117 250.462 269.559 249.928 269.797 249.298C270.035 248.667 270.055 247.975 269.856 247.331C265.59 233.799 242.516 162.95 218.333 135.024C214.887 131.045 211.262 127.224 207.47 123.574C192.064 130.751 176.638 139.001 161.383 148.317C146.129 157.634 131.745 167.591 118.326 178.02Z" fill="#A1B7DE"/>
<path d="M265.558 234.234C256.851 208.606 237.959 157.684 218.336 135.024C214.89 131.045 211.265 127.225 207.473 123.574C193.094 130.283 179.068 137.722 165.449 145.864L168.501 159.967C168.501 159.967 184.472 169.774 164.883 210.16C154.962 230.614 214.465 265.439 227.905 257.23L265.558 234.234Z" fill="white"/>
<path d="M155.555 99.6619C155.357 99.4104 155.251 99.0984 155.256 98.7783C155.261 98.4583 155.376 98.1496 155.582 97.9042C155.787 97.6589 156.071 97.4917 156.385 97.4307C156.699 97.3698 157.025 97.4189 157.307 97.5697C168.811 103.658 194.115 117.946 190.185 123.873C185.489 130.955 171.415 120.05 155.555 99.6619Z" fill="white" fill-opacity="0.3"/>
<path d="M153.253 135.002C139.476 143.417 135.122 161.434 143.536 175.211C151.95 188.988 169.967 193.342 183.744 184.928C197.522 176.513 201.876 158.496 193.461 144.719C185.046 130.942 167.029 126.589 153.253 135.002Z" fill="black"/>
<path d="M157.721 142.318C147.981 148.267 144.903 161.005 150.852 170.744C156.801 180.484 169.538 183.562 179.278 177.614C189.018 171.665 192.096 158.928 186.147 149.188C180.199 139.448 167.461 136.37 157.721 142.318Z" fill="#60F4FF"/>
<path d="M184.04 146.32C177.534 138.897 166.43 137 157.721 142.319L179.278 177.614C187.986 172.295 191.369 161.55 187.736 152.372L184.04 146.32Z" fill="#D0FAFF"/>
<path d="M203.562 237.374L203.561 237.373C202.592 235.786 202.294 233.879 202.731 232.072C203.167 230.265 204.304 228.705 205.89 227.736L205.891 227.734L211.716 224.178L211.716 224.178C213.303 223.209 215.21 222.91 217.018 223.347C218.825 223.783 220.385 224.92 221.355 226.507L221.355 226.507L257.437 285.585L257.438 285.586C258.406 287.173 258.705 289.08 258.268 290.887C257.832 292.694 256.695 294.254 255.109 295.224L255.108 295.225L249.283 298.782L249.281 298.783C247.694 299.751 245.788 300.05 243.981 299.613C242.173 299.177 240.614 298.04 239.644 296.454L239.643 296.453L203.562 237.374Z" fill="#F60800" stroke="black" stroke-width="7.2"/>
</g>
<defs>
<filter id="filter0_i_144_91" x="223.841" y="272.779" width="64.4639" height="75.1724" filterUnits="userSpaceOnUse" color-interpolation-filters="sRGB">
<feFlood flood-opacity="0" result="BackgroundImageFix"/>
<feBlend mode="normal" in="SourceGraphic" in2="BackgroundImageFix" result="shape"/>
<feColorMatrix in="SourceAlpha" type="matrix" values="0 0 0 0 0 0 0 0 0 0 0 0 0 0 0 0 0 0 127 0" result="hardAlpha"/>
<feOffset dy="-28.7539"/>
<feComposite in2="hardAlpha" operator="arithmetic" k2="-1" k3="1"/>
<feColorMatrix type="matrix" values="0 0 0 0 0.952941 0 0 0 0 0.462745 0 0 0 0 0.137255 0 0 0 1 0"/>
<feBlend mode="normal" in2="shape" result="effect1_innerShadow_144_91"/>
</filter>
<clipPath id="clip0_144_91">
<rect width="400" height="400" rx="200" fill="white"/>
</clipPath>
</defs>
</svg>
