<svg width="400" height="400" viewBox="0 0 400 400" fill="none" xmlns="http://www.w3.org/2000/svg">
<g clip-path="url(#clip0_144_33)">
<rect width="400" height="400" rx="200" fill="#7CFF57"/>
<g opacity="0.6">
<path fill-rule="evenodd" clip-rule="evenodd" d="M200 200L146.765 0H85.2979L200 200Z" fill="#EBFFCA"/>
<path fill-rule="evenodd" clip-rule="evenodd" d="M200 0V200L253.235 0H200Z" fill="#EBFFCA"/>
<path fill-rule="evenodd" clip-rule="evenodd" d="M314.702 0L200 200L398.667 0H314.702Z" fill="#EBFFCA"/>
<path fill-rule="evenodd" clip-rule="evenodd" d="M498 26.8L200 200L498 119.616V26.8Z" fill="#EBFFCA"/>
<path fill-rule="evenodd" clip-rule="evenodd" d="M498 200H200L498 280.384V200Z" fill="#EBFFCA"/>
<path fill-rule="evenodd" clip-rule="evenodd" d="M498 373.208L200 200L398.667 400H498V373.208Z" fill="#EBFFCA"/>
<path fill-rule="evenodd" clip-rule="evenodd" d="M314.702 400L200 200L253.235 400H314.702Z" fill="#EBFFCA"/>
<path fill-rule="evenodd" clip-rule="evenodd" d="M199.999 400V200L146.765 400H199.999Z" fill="#EBFFCA"/>
<path fill-rule="evenodd" clip-rule="evenodd" d="M85.2985 400L200.001 200L1.33398 400H85.2985Z" fill="#EBFFCA"/>
<path fill-rule="evenodd" clip-rule="evenodd" d="M-98 373.208L200 200L-98 280.384V373.208Z" fill="#EBFFCA"/>
<path fill-rule="evenodd" clip-rule="evenodd" d="M-98 200H200L-98 119.616V200Z" fill="#EBFFCA"/>
<path fill-rule="evenodd" clip-rule="evenodd" d="M-98 26.8L200 200L1.33333 0H-98V26.8Z" fill="#EBFFCA"/>
<path fill-rule="evenodd" clip-rule="evenodd" d="M239.042 400L222.084 331.176L225.302 400H239.042Z" fill="#EBFFCA"/>
</g>
<path d="M350.118 204.864C356.813 202.211 360.673 191.053 360.673 191.053C353.134 193.525 348.248 191.053 348.248 191.053C357.536 186.831 364.895 161.439 364.895 161.439C361.216 164.394 341.553 165.118 341.553 165.118C351.686 144.973 343.845 136.529 343.845 136.529C340.347 136.891 337.331 138.64 337.331 138.64C340.166 132.006 332.265 121.27 332.265 121.27C335.763 114.274 329.491 86.7103 329.491 86.7103C327.38 99.6777 310.914 125.612 310.914 125.612C311.095 124.225 309.165 121.029 309.165 121.029C306.511 128.025 292.157 136.288 292.157 136.288C297.585 128.749 288.297 91.0529 288.297 91.0529C282.145 102.452 265.136 114.877 265.136 114.877C267.247 112.223 265.136 99.7983 265.136 99.7983C264.051 102.271 257.959 102.754 257.959 102.754C261.638 98.5317 256.029 79.1108 256.029 79.1108C252.893 84.9009 244.087 89.9672 244.087 89.9672C244.087 85.6247 234.678 63.1277 234.678 63.1277C235.402 68.1941 228.164 73.9842 228.164 73.9842C228.164 73.9842 222.374 63.1277 216.584 58.0011C210.673 53.1157 200.48 27 200.48 27C200.48 27 190.348 53.1157 184.497 58.182C178.707 63.2484 172.857 74.1651 172.857 74.1651C172.857 74.1651 165.619 68.375 166.343 63.3087C166.343 63.3087 156.934 85.8056 156.934 90.1482C156.934 90.1482 148.189 85.0818 144.992 79.2917C144.992 79.2917 139.383 98.773 143.062 102.935C143.062 102.935 136.91 102.392 135.885 99.9793C135.885 99.9793 133.774 112.404 135.885 115.058C135.885 115.058 118.876 102.633 112.724 91.2338C112.724 91.2338 103.436 128.93 108.864 136.469C108.864 136.469 94.5096 128.206 91.8558 121.21C91.8558 121.21 89.9258 124.346 90.1067 125.793C90.1067 125.793 73.6411 99.8586 71.5302 86.8912C71.5302 86.8912 65.2576 114.394 68.7557 121.451C68.7557 121.451 60.8547 132.126 63.6894 138.821C63.6894 138.821 60.7341 137.072 57.2359 136.71C57.2359 136.71 49.3348 145.154 59.5278 165.299C59.5278 165.299 39.8656 164.575 36.1865 161.62C36.1865 161.62 43.5447 187.012 52.833 191.233C52.833 191.233 47.9476 193.706 40.4084 191.233C40.4084 191.233 44.2685 202.331 50.903 205.045C50.903 205.045 31.6027 205.287 28.1045 208.423C28.1045 208.423 35.8849 219.098 42.3385 219.822C45.4748 220.184 48.4904 234.358 53.9186 235.624C53.9186 235.624 45.5351 238.097 42.7003 237.192C42.7003 237.192 43.7257 244.37 56.0296 248.411C56.0296 248.411 51.9886 266.987 57.7787 270.666C57.7787 270.666 57.0549 271.873 52.7124 271.692C52.7124 271.692 56.9343 280.437 63.3878 282.186C63.3878 282.186 57.4168 282.005 54.2805 282.186C54.2805 282.186 63.5688 293.224 70.2033 294.792C70.2033 294.792 67.9114 297.084 65.9813 296.541C65.9813 296.541 68.6351 299.858 73.3396 300.582C73.3396 300.582 62.845 308.302 62.1213 311.257C62.1213 311.257 73.3396 318.615 82.6278 319.158C82.6278 319.158 80.3359 321.45 78.7678 321.993C78.7678 321.993 85.9451 325.672 91.9161 323.561C91.9161 323.561 85.2816 328.808 84.196 330.738C84.196 330.738 91.7352 335.805 100.36 334.418C100.36 334.418 104.039 337.373 106.693 337.373C106.693 337.373 104.763 339.846 102.833 340.208C102.833 340.208 110.191 342.5 115.981 340.208C115.981 340.208 132.085 344.007 136.669 341.233C136.669 341.233 137.453 352.331 180.878 326.758C188.357 322.355 190.348 321.39 200.541 314.394C210.734 321.33 212.664 322.295 220.203 326.758C263.628 352.331 264.413 341.233 264.413 341.233C268.996 344.007 285.1 340.208 285.1 340.208C290.89 342.5 298.248 340.208 298.248 340.208C296.318 339.846 294.388 337.373 294.388 337.373C297.042 337.373 300.721 334.418 300.721 334.418C309.286 335.805 316.825 330.738 316.825 330.738C315.739 328.808 309.105 323.561 309.105 323.561C315.076 325.672 322.253 321.993 322.253 321.993C320.685 321.45 318.393 319.158 318.393 319.158C327.681 318.615 338.9 311.257 338.9 311.257C338.176 308.302 327.681 300.582 327.681 300.582C332.386 299.858 335.04 296.541 335.04 296.541C333.11 297.084 330.818 294.792 330.818 294.792C337.452 293.224 346.74 282.186 346.74 282.186C343.604 282.005 337.633 282.186 337.633 282.186C344.147 280.437 348.309 271.692 348.309 271.692C343.906 271.873 343.242 270.666 343.242 270.666C349.032 266.987 344.991 248.411 344.991 248.411C357.295 244.37 358.321 237.192 358.321 237.192C355.546 238.037 347.102 235.624 347.102 235.624C352.53 234.418 355.486 220.184 358.682 219.822C365.076 219.098 372.856 208.423 372.856 208.423C369.418 205.106 350.118 204.864 350.118 204.864Z" fill="#14A800"/>
<path d="M200.6 40.6912C200.6 40.6912 201.866 133.212 203.133 225.793C203.435 248.953 203.796 272.053 204.038 293.766C204.158 304.562 204.46 315.117 204.158 325.19C203.917 335.202 203.435 344.671 202.831 353.356C201.565 370.847 199.454 385.382 196.74 395.636C195.413 400.762 193.905 404.803 192.518 407.578C191.854 408.965 191.251 410.051 190.769 410.774C190.286 411.498 190.045 411.86 190.045 411.86L181.842 405.949C181.782 405.889 182.506 405.165 183.591 403.054C184.677 401.004 186.064 397.626 187.452 392.982C190.226 383.754 192.638 369.641 194.327 352.512C195.172 343.947 195.895 334.659 196.378 324.767C196.981 314.936 196.86 304.562 197.102 293.646C197.403 271.933 197.705 248.833 198.006 225.672C199.333 133.272 200.6 40.6912 200.6 40.6912Z" fill="#14A800"/>
<path d="M198.79 183.513C198.79 183.513 199.815 182.488 201.444 180.739C203.133 178.99 205.425 176.396 208.139 173.14C210.973 170.003 213.868 166.023 217.125 161.861C218.633 159.69 220.262 157.458 221.83 155.226C223.398 152.935 225.147 150.703 226.534 148.23C227.982 145.818 229.429 143.405 230.877 141.053C232.385 138.701 233.712 136.348 234.857 133.936C236.064 131.584 237.21 129.292 238.295 127.12C239.381 124.949 240.527 122.898 241.13 120.908C244.146 112.947 246.136 107.639 246.136 107.639C246.136 107.639 244.387 113.067 241.854 121.21C241.311 123.26 240.286 125.371 239.321 127.603C238.356 129.835 237.33 132.247 236.245 134.66C235.219 137.132 234.013 139.605 232.626 142.078C231.299 144.551 229.972 147.084 228.585 149.617C227.318 152.211 225.63 154.503 224.242 156.915C222.734 159.328 221.287 161.62 219.839 163.912C216.703 168.254 214.049 172.476 211.335 175.854C208.742 179.292 206.51 182.126 204.882 184.056C203.253 186.047 202.349 187.072 202.349 187.072L198.79 183.513Z" fill="#14A800"/>
<path d="M198.613 253.839C198.613 253.839 205.61 245.093 215.501 231.463C220.447 224.647 226.116 216.625 232.027 207.88C237.877 199.135 244.09 189.726 249.819 180.076C252.775 175.311 255.549 170.425 258.263 165.6C261.098 160.836 263.511 155.95 265.983 151.306C268.456 146.662 270.507 142.018 272.618 137.675C274.729 133.333 276.297 129.05 277.986 125.13C279.675 121.27 280.7 117.531 281.906 114.334C283.112 111.137 283.896 108.242 284.439 105.83C285.646 101.065 286.309 98.2905 286.309 98.2905C286.309 98.2905 285.706 101.065 284.62 105.83C284.138 108.242 283.474 111.198 282.328 114.394C281.243 117.651 280.338 121.451 278.71 125.371C277.141 129.292 275.694 133.634 273.704 138.097C271.713 142.5 269.783 147.265 267.431 151.969C265.079 156.674 262.787 161.68 260.073 166.505C257.479 171.39 254.825 176.396 251.991 181.282C246.502 191.113 240.531 200.763 234.922 209.689C229.253 218.616 223.764 226.879 218.999 233.875C209.409 247.808 202.594 256.915 202.594 256.915L198.613 253.839Z" fill="#14A800"/>
<path d="M198.79 301.668C198.79 301.668 209.405 290.871 224.423 273.863C231.962 265.359 240.527 255.226 249.453 244.189C253.796 238.58 258.5 232.971 262.903 226.939C267.366 220.968 271.95 214.937 276.293 208.725L282.807 199.436C284.857 196.3 286.908 193.164 288.959 190.027C293.181 183.875 296.799 177.482 300.418 171.391C304.158 165.359 307.113 159.147 310.189 153.417C310.913 151.97 311.697 150.522 312.421 149.135C313.084 147.687 313.687 146.24 314.29 144.853C315.497 142.018 316.703 139.364 317.849 136.71C320.322 131.584 321.588 126.517 323.156 122.175C323.88 120.003 324.544 117.953 325.207 116.023C325.629 114.093 325.991 112.283 326.353 110.655C327.74 104.141 328.464 100.462 328.464 100.462C328.464 100.462 327.74 104.201 326.534 110.715C326.232 112.344 325.87 114.153 325.509 116.143C324.905 118.073 324.242 120.124 323.579 122.356C322.071 126.759 320.925 131.885 318.512 137.072C317.427 139.726 316.281 142.44 315.135 145.275C314.532 146.722 313.928 148.17 313.325 149.617C312.601 151.065 311.938 152.512 311.154 153.96C308.199 159.75 305.364 166.083 301.745 172.235C298.247 178.447 294.688 184.901 290.587 191.173C288.597 194.37 286.606 197.567 284.616 200.763L278.283 210.232C274.122 216.565 269.598 222.717 265.255 228.809C260.973 234.961 256.329 240.691 252.107 246.42C243.362 257.699 234.978 268.013 227.62 276.758C212.903 294.189 202.409 305.286 202.409 305.286L198.79 301.668Z" fill="#14A800"/>
<path d="M220.563 277.602C220.563 277.602 229.49 275.25 242.699 271.089C249.333 268.978 256.993 266.444 265.135 263.429C273.277 260.413 281.963 257.156 290.467 253.477C294.749 251.728 298.971 249.738 303.072 247.808C307.234 245.938 311.215 243.827 315.075 241.837C318.995 239.907 322.493 237.675 325.991 235.745C329.49 233.815 332.505 231.583 335.461 229.714C338.416 227.904 340.768 225.733 343.06 224.104C345.352 222.476 347.222 220.787 348.669 219.4C351.625 216.626 353.313 214.997 353.313 214.997C353.313 214.997 351.685 216.626 348.79 219.521C347.403 221.028 345.593 222.717 343.362 224.466C341.13 226.215 338.778 228.447 335.883 230.377C332.988 232.307 330.032 234.659 326.595 236.77C323.157 238.821 319.658 241.233 315.798 243.284C311.999 245.395 308.078 247.687 303.977 249.677C299.876 251.788 295.714 253.899 291.492 255.769C257.717 271.692 221.89 282.427 221.89 282.427L220.563 277.602Z" fill="#14A800"/>
<path d="M200.239 311.74C200.239 311.74 209.105 310.594 222.435 307.819C229.069 306.372 236.789 304.683 244.992 302.451C253.194 300.34 261.819 297.626 270.444 294.791C274.666 293.223 279.009 291.776 283.11 290.147C287.211 288.398 291.373 286.89 295.173 285.081C298.972 283.272 302.832 281.703 306.21 279.834C309.648 277.964 312.965 276.396 315.86 274.647C318.755 272.898 321.409 271.269 323.761 269.822C326.113 268.374 327.983 266.866 329.672 265.72C332.929 263.428 334.738 262.102 334.738 262.102C334.738 262.102 332.929 263.489 329.792 265.901C328.164 267.047 326.355 268.676 324.063 270.184C321.771 271.691 319.117 273.44 316.282 275.31C313.387 277.12 310.13 278.869 306.753 280.859C303.375 282.849 299.636 284.538 295.836 286.528C292.036 288.459 287.935 290.147 283.894 292.017C279.793 293.826 275.51 295.395 271.288 297.144C262.724 300.28 254.099 303.296 245.897 305.708C237.754 308.241 229.974 310.232 223.339 311.86C210.07 315.117 200.963 316.625 200.963 316.625L200.239 311.74Z" fill="#14A800"/>
<path d="M264.175 226.034C264.175 226.034 269.844 224.225 278.228 220.847C286.551 217.53 297.528 212.584 307.962 206.613C310.616 205.166 313.089 203.537 315.622 201.969C318.155 200.461 320.447 198.652 322.799 197.084C325.091 195.455 327.142 193.706 329.193 192.078C331.123 190.389 332.872 188.7 334.561 187.192C336.189 185.624 337.456 183.996 338.722 182.669C339.989 181.342 340.833 180.015 341.617 178.93C343.125 176.758 343.969 175.552 343.969 175.552C343.969 175.552 343.185 176.819 341.738 179.05C341.014 180.136 340.17 181.523 338.963 182.91C337.757 184.297 336.551 185.986 334.922 187.554C333.294 189.123 331.605 190.872 329.675 192.621C327.685 194.249 325.634 196.119 323.403 197.808C321.111 199.436 318.819 201.306 316.346 202.874C313.873 204.502 311.34 206.191 308.746 207.699C288.059 220.305 265.14 228.387 265.14 228.387L264.175 226.034Z" fill="#14A800"/>
<path d="M257.716 299.677C257.716 299.677 258.621 300.34 260.249 301.185C261.033 301.667 262.119 302.09 263.325 302.572C264.531 303.115 265.919 303.718 267.487 304.14C269.055 304.623 270.744 305.166 272.553 305.769C274.423 306.191 276.353 306.613 278.343 307.035C280.334 307.518 282.445 307.94 284.616 308.181C286.787 308.483 288.958 308.784 291.13 309.086C295.533 309.749 299.996 309.689 304.157 309.991C306.208 310.051 308.259 310.292 310.128 310.232C312.058 310.232 313.868 310.172 315.496 310.172C322.191 310.051 326.594 309.991 326.594 309.991C326.594 309.991 322.131 310.232 315.496 310.533C313.808 310.594 312.058 310.714 310.128 310.835C308.198 311.016 306.208 310.835 304.097 310.835C299.935 310.654 295.412 310.835 291.009 310.352C288.777 310.111 286.546 309.93 284.375 309.689C282.143 309.508 280.032 309.207 277.981 308.784C275.931 308.422 273.88 308 272.01 307.699C270.141 307.156 268.392 306.673 266.763 306.251C265.135 305.829 263.687 305.286 262.36 304.743C261.094 304.201 259.948 303.839 259.043 303.356C257.173 302.451 256.269 301.848 256.269 301.848L257.716 299.677Z" fill="#14A800"/>
<path d="M208.384 313.007C208.384 313.127 208.384 313.248 208.625 313.67C208.866 314.153 209.349 314.997 210.314 315.781C211.219 316.625 212.546 317.59 214.174 318.435C215.803 319.4 217.793 320.124 219.964 320.968C222.196 321.631 224.608 322.536 227.262 323.079C229.856 323.742 232.69 324.346 235.585 324.828C241.436 325.853 247.708 326.637 254.041 327.12C260.374 327.783 266.707 327.904 272.678 328.266C278.649 328.387 284.198 328.507 288.963 328.567C298.492 328.507 304.825 328.447 304.825 328.447C304.825 328.447 298.492 328.628 288.963 328.929C284.198 329.05 278.649 328.99 272.678 329.05C266.707 328.869 260.374 328.869 253.981 328.387C247.648 328.025 241.255 327.422 235.344 326.517C232.389 326.095 229.554 325.612 226.84 324.949C224.126 324.466 221.653 323.622 219.301 322.958C217.009 322.114 214.898 321.39 213.149 320.425C211.339 319.581 209.832 318.555 208.686 317.53C207.54 316.565 206.756 315.54 206.394 314.695C206.152 314.334 206.032 313.791 205.971 313.549C205.911 313.308 205.911 313.188 205.911 313.188L208.384 313.007Z" fill="#14A800"/>
<path d="M198.55 186.951C198.55 186.951 197.585 185.926 196.017 183.935C194.389 182.005 192.157 179.171 189.564 175.733C186.849 172.355 184.196 168.133 181.059 163.791C179.612 161.499 178.164 159.147 176.656 156.794C175.209 154.382 173.58 152.03 172.314 149.496C170.987 146.963 169.6 144.49 168.333 141.957C166.946 139.484 165.74 137.072 164.714 134.539C163.629 132.066 162.603 129.714 161.638 127.482C160.673 125.25 159.648 123.139 159.105 121.089C156.512 113.007 154.763 107.579 154.763 107.579C154.763 107.579 156.753 112.886 159.769 120.848C160.432 122.898 161.578 124.889 162.664 127.06C163.749 129.231 164.895 131.523 166.102 133.875C167.187 136.288 168.574 138.64 170.082 140.992C171.53 143.344 172.977 145.757 174.425 148.17C175.812 150.642 177.621 152.814 179.129 155.166C180.758 157.458 182.326 159.629 183.834 161.8C187.151 165.902 190.046 169.943 192.82 173.079C195.535 176.336 197.887 178.929 199.515 180.678C201.144 182.488 202.169 183.453 202.169 183.453L198.55 186.951Z" fill="#14A800"/>
<path d="M198.372 256.915C198.372 256.915 191.557 247.868 181.967 233.875C177.202 226.879 171.714 218.676 166.044 209.689C160.435 200.703 154.464 191.113 148.976 181.282C146.141 176.396 143.487 171.39 140.894 166.505C138.179 161.62 135.948 156.674 133.535 151.969C131.183 147.265 129.253 142.5 127.263 138.097C125.272 133.695 123.825 129.292 122.257 125.371C120.628 121.451 119.724 117.651 118.638 114.394C117.492 111.137 116.829 108.242 116.346 105.83C115.26 101.005 114.657 98.2905 114.657 98.2905C114.657 98.2905 115.321 101.005 116.527 105.83C117.07 108.242 117.854 111.137 119.06 114.334C120.266 117.531 121.231 121.27 122.98 125.13C124.669 128.99 126.237 133.272 128.348 137.675C130.52 142.018 132.51 146.662 135.043 151.306C137.516 155.95 139.929 160.836 142.763 165.6C145.477 170.425 148.252 175.311 151.207 180.076C156.997 189.726 163.149 199.135 169 207.88C174.85 216.625 180.58 224.647 185.526 231.463C195.417 245.093 202.413 253.839 202.413 253.839L198.372 256.915Z" fill="#14A800"/>
<path d="M198.548 305.105C198.548 305.105 188.054 294.008 173.398 276.577C166.04 267.892 157.656 257.518 148.911 246.239C144.628 240.509 140.044 234.78 135.762 228.628C131.359 222.536 126.896 216.384 122.734 210.051L116.341 200.582C114.351 197.385 112.361 194.189 110.37 190.992C106.269 184.72 102.771 178.266 99.2122 172.054C95.5331 165.962 92.7587 159.629 89.8033 153.779C89.0796 152.331 88.3558 150.884 87.6321 149.436C87.0289 147.989 86.4258 146.541 85.8227 145.094C84.6164 142.259 83.5308 139.484 82.4451 136.891C80.0929 131.704 78.8866 126.577 77.4391 122.175C76.7153 119.943 76.1122 117.892 75.5091 115.962C75.1472 113.972 74.7853 112.163 74.4837 110.534C73.2775 104.02 72.5537 100.281 72.5537 100.281C72.5537 100.281 73.3378 104.02 74.725 110.474C75.0266 112.102 75.4488 113.912 75.871 115.842C76.5344 117.711 77.1978 119.762 77.9216 121.994C79.4898 126.336 80.7563 131.402 83.2292 136.529C84.3751 139.123 85.5211 141.837 86.7877 144.671C87.3908 146.059 88.0543 147.506 88.6574 148.954C89.3812 150.341 90.1049 151.788 90.889 153.236C93.965 158.966 96.86 165.178 100.66 171.209C104.279 177.301 107.958 183.694 112.119 189.846C114.17 192.983 116.221 196.119 118.271 199.255L124.785 208.543C129.067 214.756 133.651 220.787 138.175 226.758C142.578 232.789 147.282 238.399 151.625 244.008C160.551 255.045 169.116 265.178 176.594 273.682C191.612 290.751 202.228 301.486 202.228 301.486L198.548 305.105Z" fill="#14A800"/>
<path d="M179.068 282.427C179.068 282.427 143.242 271.692 109.467 255.769C105.245 253.839 101.083 251.728 96.9819 249.677C92.8806 247.687 88.9602 245.395 85.1605 243.284C81.3004 241.233 77.8022 238.821 74.3644 236.77C70.9265 234.72 67.9711 232.367 65.0761 230.377C62.181 228.447 59.8288 226.215 57.5972 224.466C55.3656 222.717 53.5562 221.028 52.169 219.521C49.3343 216.626 47.6455 214.997 47.6455 214.997C47.6455 214.997 49.3343 216.565 52.2896 219.4C53.7372 220.847 55.5466 222.476 57.8385 224.104C60.1304 225.733 62.4826 227.904 65.438 229.714C68.3933 231.583 71.409 233.815 74.9072 235.745C78.4054 237.675 81.9035 239.907 85.8239 241.837C89.684 243.767 93.6043 245.938 97.8263 247.808C101.988 249.738 106.15 251.668 110.432 253.477C118.936 257.156 127.561 260.473 135.763 263.429C143.906 266.384 151.626 268.978 158.2 271.089C171.469 275.311 180.395 277.602 180.395 277.602L179.068 282.427Z" fill="#14A800"/>
<path d="M200.001 316.746C200.001 316.746 190.893 315.238 177.624 311.981C170.99 310.292 163.27 308.362 155.067 305.829C146.864 303.416 138.24 300.401 129.675 297.265C125.453 295.515 121.171 293.947 117.07 292.138C112.968 290.268 108.867 288.579 105.067 286.649C101.267 284.659 97.528 282.97 94.1505 280.98C90.7729 278.99 87.516 277.24 84.6209 275.431C81.7862 273.561 79.1324 271.812 76.8405 270.304C74.5486 268.797 72.6789 267.168 71.1107 266.022C67.9744 263.61 66.165 262.222 66.165 262.222C66.165 262.222 68.0348 263.549 71.2314 265.841C72.8598 266.987 74.7295 268.495 77.0818 269.943C79.434 271.39 82.0878 273.019 84.9828 274.768C87.8779 276.517 91.2554 278.145 94.633 279.955C98.0708 281.824 101.871 283.392 105.67 285.202C109.53 287.011 113.632 288.519 117.733 290.268C121.895 291.897 126.177 293.344 130.399 294.912C138.963 297.747 147.648 300.461 155.851 302.572C164.054 304.804 171.774 306.492 178.408 307.94C191.677 310.714 200.604 311.86 200.604 311.86L200.001 316.746Z" fill="#14A800"/>
<path d="M136.067 228.447C136.067 228.447 113.148 220.365 92.4601 207.759C89.8666 206.252 87.3335 204.563 84.8606 202.934C82.3275 201.366 80.0959 199.496 77.7436 197.868C75.512 196.179 73.4614 194.309 71.471 192.681C69.541 190.932 67.8522 189.183 66.2238 187.615C64.6556 185.986 63.389 184.297 62.1828 182.971C60.9162 181.583 60.1321 180.256 59.4084 179.11C57.9608 176.879 57.1768 175.612 57.1768 175.612C57.1768 175.612 58.0211 176.879 59.529 178.99C60.2527 180.076 61.1574 181.402 62.424 182.729C63.6906 184.056 64.9572 185.685 66.5857 187.253C68.2744 188.761 69.9632 190.51 71.9535 192.138C74.0042 193.706 76.0549 195.516 78.3468 197.144C80.699 198.712 82.9909 200.522 85.5241 202.03C88.0572 203.598 90.5301 205.226 93.1839 206.674C103.618 212.584 114.535 217.53 122.918 220.908C131.181 224.225 136.851 226.034 136.851 226.034L136.067 228.447Z" fill="#14A800"/>
<path d="M144.69 301.788C144.69 301.788 143.785 302.391 141.915 303.296C141.011 303.839 139.865 304.201 138.598 304.683C137.331 305.226 135.824 305.769 134.195 306.191C132.567 306.673 130.818 307.156 128.948 307.638C127.078 308 125.028 308.362 122.977 308.724C120.926 309.146 118.755 309.508 116.584 309.629C114.412 309.87 112.181 310.051 109.949 310.292C105.486 310.775 101.023 310.594 96.8612 310.775C94.7502 310.775 92.7599 310.956 90.8298 310.775C88.8998 310.654 87.0904 310.594 85.4619 310.473C78.7671 310.111 74.3643 309.93 74.3643 309.93C74.3643 309.93 78.8275 309.991 85.4619 310.111C87.1507 310.111 88.9601 310.172 90.8298 310.172C92.7599 310.292 94.7502 310.051 96.8009 309.93C100.962 309.629 105.426 309.629 109.768 309.026C112 308.724 114.171 308.422 116.342 308.121C118.514 307.88 120.625 307.457 122.615 306.975C124.605 306.553 126.596 306.07 128.405 305.648C130.214 305.105 131.903 304.562 133.471 304.02C135.04 303.597 136.427 302.994 137.633 302.451C138.839 301.909 139.925 301.486 140.709 301.064C142.337 300.22 143.242 299.556 143.242 299.556L144.69 301.788Z" fill="#14A800"/>
<path d="M195.114 313.308C195.114 313.308 195.114 313.429 195.054 313.67C194.993 313.971 194.873 314.454 194.631 314.816C194.209 315.66 193.425 316.685 192.279 317.65C191.133 318.676 189.625 319.701 187.816 320.546C186.067 321.511 183.956 322.234 181.664 323.079C179.312 323.742 176.839 324.587 174.125 325.069C171.411 325.672 168.576 326.215 165.621 326.637C159.71 327.542 153.317 328.145 146.984 328.507C140.651 328.989 134.258 328.989 128.287 329.17C122.316 329.11 116.767 329.17 112.002 329.05C102.473 328.748 96.1396 328.567 96.1396 328.567C96.1396 328.567 102.473 328.628 112.062 328.688C116.827 328.688 122.376 328.507 128.347 328.386C134.318 328.024 140.651 327.904 146.984 327.24C153.317 326.758 159.589 325.974 165.44 324.948C168.395 324.466 171.17 323.923 173.763 323.199C176.417 322.656 178.829 321.752 181.061 321.088C183.232 320.184 185.223 319.46 186.851 318.555C188.54 317.711 189.806 316.746 190.711 315.901C191.676 315.057 192.219 314.273 192.4 313.79C192.641 313.368 192.641 313.248 192.641 313.127L195.114 313.308Z" fill="#14A800"/>
<path fill-rule="evenodd" clip-rule="evenodd" d="M112.518 301.887H169.441V217.713C169.441 215.009 173.28 214.578 173.867 217.216L187.428 278.173H221.583V257.405C221.583 256.153 222.585 255.139 223.823 255.139H277.824V139.998H220.9V160.766C220.9 162.017 219.898 163.032 218.66 163.032H161.812L166.473 183.983C166.788 185.399 165.723 186.745 164.288 186.745H112.518V301.887Z" fill="white"/>
</g>
<defs>
<clipPath id="clip0_144_33">
<rect width="400" height="400" rx="200" fill="white"/>
</clipPath>
</defs>
</svg>
